<?xml version="1.0" encoding="utf-8"?>
<!-- Generator: Adobe Illustrator 21.0.0, SVG Export Plug-In . SVG Version: 6.00 Build 0)  -->
<svg xmlns="http://www.w3.org/2000/svg" xmlns:xlink="http://www.w3.org/1999/xlink" version="1.1" x="0px" y="0px" viewBox="0 0 100 100" style="enable-background:new 0 0 100 100;" xml:space="preserve" width="500px" height="500px">

<g id="window_shop_promotionwindow_shop_bag">
	<g id="Tryb_izolacji_103_">
	</g>
	<g id="Layer_88_280_">
	</g>
	<g id="Layer_135">
	</g>
</g>
<g id="window_shop_promotionwindow_shop_cards">
	<g id="Tryb_izolacji_104_">
	</g>
	<g id="Layer_88_281_">
	</g>
</g>
<g id="window_shop_promotionwindow_shop_favorite">
	<g id="Tryb_izolacji_105_">
	</g>
	<g id="Layer_88_282_">
	</g>
</g>
<g id="window_shop_promotion">
	<g id="Tryb_izolacji_106_">
	</g>
	<g id="Layer_88_283_">
	</g>
</g>
<g id="window_login">
	<g id="Tryb_izolacji_107_">
	</g>
	<g id="Layer_88_284_">
	</g>
</g>
<g id="shopping_basket_star">
	<g id="Tryb_izolacji_108_">
	</g>
	<g id="Layer_88_285_">
	</g>
</g>
<g id="shopping_basket_full">
</g>
<g id="shopping_basket_succes">
</g>
<g id="shopping_basket_remove">
</g>
<g id="shopping_basket_add">
	<g id="Tryb_izolacji_112_">
	</g>
	<g id="Layer_88_289_">
	</g>
</g>
<g id="exchange_money_lightcoin">
	<g id="Tryb_izolacji_83_">
	</g>
	<g id="Layer_88_261_">
	</g>
</g>
<g id="exchange_money_ethereum">
	<g id="Tryb_izolacji_84_">
	</g>
	<g id="Layer_88_262_">
	</g>
</g>
<g id="exchange_money_euro_x5F_pound">
	<g id="Tryb_izolacji_85_">
	</g>
	<g id="Layer_88_263_">
	</g>
</g>
<g id="exchange_money_bitcoin">
	<g id="Tryb_izolacji_86_">
	</g>
	<g id="Layer_88_264_">
	</g>
</g>
<g id="exchange_money_rupee">
	<g id="Tryb_izolacji_87_">
	</g>
	<g id="Layer_88_265_">
	</g>
</g>
<g id="exchange_money_won">
	<g id="Tryb_izolacji_88_">
	</g>
	<g id="Layer_88_266_">
	</g>
</g>
<g id="exchange_money_taiwan">
	<g id="Tryb_izolacji_89_">
	</g>
	<g id="Layer_88_267_">
	</g>
</g>
<g id="exchange_money_yuan">
	<g id="Tryb_izolacji_90_">
	</g>
	<g id="Layer_88_268_">
	</g>
</g>
<g id="exchange_mony_pound_x0A_">
	<g id="Tryb_izolacji_91_">
	</g>
	<g id="Layer_88_269_">
	</g>
</g>
<g id="exchange_dolar_euro">
	<g id="Tryb_izolacji_92_">
	</g>
	<g id="Layer_88_270_">
	</g>
</g>
<g id="money_lightcoin">
	<g id="Layer_88">
	</g>
</g>
<g id="money_ethereum">
	<g id="Tryb_izolacji_1_">
	</g>
</g>
<g id="money_bitcoin">
	<g id="Layer_88_153_">
	</g>
</g>
<g id="money_rupee">
	<g id="Layer_88_154_">
	</g>
</g>
<g id="money_won">
	<g id="Layer_88_155_">
	</g>
</g>
<g id="money_dollar">
	<g id="Layer_88_156_">
	</g>
</g>
<g id="money_taiwan">
	<g id="Layer_88_157_">
	</g>
</g>
<g id="money_yuan">
	<g id="Layer_88_158_">
	</g>
</g>
<g id="mony_pound_x0A_">
	<g id="Layer_88_159_">
	</g>
</g>
<g id="mony_euro">
	<g id="Layer_88_160_">
	</g>
</g>
<g id="document_security">
</g>
<g id="document_finance">
</g>
<g id="document_geography">
</g>
<g id="document_travel">
</g>
<g id="document_romance">
</g>
<g id="document_art">
	<g id="Tryb_izolacji">
	</g>
</g>
<g id="document_law">
</g>
<g id="document_winner">
	<g id="winer">
		<g>
			<path d="M88.704,55.926c0.3-0.616,0.566-1.264,0.796-1.943c2.633-7.77-1.349-17.078-9.733-19.325     C78.86,23.275,70.86,15.466,61.826,14.133c-10.341-1.525-19.814,5.044-22.966,15.485c-3.799-1.346-7.501-1.182-10.99,0.857     c-1.583,0.732-3.031,1.812-4.33,3.233c-1.907,2.086-3.147,4.719-3.652,7.495c-0.748,0.118-1.483,0.236-2.176,0.484     c-4.04,1.449-6.589,4.431-7.288,8.923c-0.435,2.797,0.443,5.587,0.933,6.714c1.935,4.455,6.422,6.98,10.981,6.312     c0.227-0.033,0.557,0.069,0.752,0.233c0.241,7.12,3.698,13.417,8.884,17.014c8.321,5.772,19.027,3.994,25.781-3.921     c2.894,2.96,6.338,4.398,10.384,3.876c4.023-0.519,7.147-2.739,9.426-6.349c1.053,0.283,2.051,0.691,3.083,0.804     c4.042,0.442,7.324-1.165,9.732-4.8c0.922-1.391,1.793-3.194,1.793-6.354C92.174,60.883,90.881,57.916,88.704,55.926z" style="fill:#C7EDE6;"/>
			<g>
				<g>
					<path d="M71.968,49.096c0,0,11.691,0,11.762,0c2.7,0,4.888-2.189,4.888-4.889c0-2.355-1.666-4.321-3.884-4.784       c0.026-0.206,0.043-0.415,0.043-0.628c0-2.796-2.267-5.063-5.063-5.063c-1.651,0-3.113,0.794-4.037,2.017       c-0.236-3.113-3.017-5.514-6.27-5.116c-2.379,0.291-4.346,2.13-4.784,4.486c-0.14,0.756-0.126,1.489,0.014,2.177       c-0.638-0.687-1.546-1.119-2.557-1.119c-1.85,0-3.361,1.441-3.48,3.261c-0.84-0.186-1.754-0.174-2.717,0.188       c-1.84,0.691-3.15,2.423-3.227,4.387c-0.109,2.789,2.12,5.085,4.885,5.085c0.21,0,0.948,0,1.118,0h10.151" style="fill:#FDFCEF;"/>
					<path d="M83.73,49.595H71.968c-0.276,0-0.5-0.224-0.5-0.5s0.224-0.5,0.5-0.5H83.73       c2.419,0,4.388-1.969,4.388-4.389c0-2.066-1.466-3.872-3.486-4.295c-0.255-0.053-0.426-0.293-0.394-0.552       c0.023-0.186,0.039-0.374,0.039-0.565c0-2.517-2.047-4.563-4.563-4.563c-1.439,0-2.765,0.663-3.638,1.818       c-0.125,0.166-0.34,0.238-0.54,0.178c-0.2-0.059-0.342-0.234-0.358-0.441c-0.105-1.377-0.779-2.671-1.851-3.549       c-1.082-0.888-2.453-1.28-3.86-1.109c-2.166,0.266-3.956,1.943-4.353,4.081c-0.124,0.669-0.12,1.337,0.012,1.986       c0.045,0.22-0.062,0.441-0.261,0.544c-0.198,0.104-0.442,0.06-0.595-0.104c-0.575-0.618-1.353-0.959-2.19-0.959       c-1.569,0-2.878,1.228-2.981,2.794c-0.01,0.146-0.083,0.28-0.199,0.368c-0.117,0.087-0.266,0.119-0.408,0.088       c-0.84-0.188-1.636-0.132-2.433,0.167c-1.669,0.627-2.836,2.209-2.903,3.938c-0.047,1.207,0.387,2.35,1.222,3.218       c0.835,0.868,1.959,1.347,3.164,1.347h11.269c0.276,0,0.5,0.224,0.5,0.5s-0.224,0.5-0.5,0.5H57.542       c-1.479,0-2.859-0.587-3.884-1.654c-1.025-1.065-1.558-2.468-1.5-3.949c0.083-2.126,1.51-4.069,3.551-4.835       c0.801-0.302,1.628-0.4,2.468-0.3c0.377-1.822,1.997-3.182,3.905-3.182c0.684,0,1.354,0.18,1.944,0.51       c0-0.385,0.035-0.771,0.107-1.158c0.476-2.562,2.62-4.574,5.215-4.892c1.678-0.206,3.32,0.266,4.615,1.328       c1.004,0.822,1.716,1.95,2.039,3.193c1.012-0.916,2.319-1.426,3.713-1.426c3.067,0,5.563,2.496,5.563,5.563       c0,0.083-0.002,0.166-0.007,0.248c2.254,0.674,3.848,2.777,3.848,5.164C89.118,47.178,86.701,49.595,83.73,49.595z" style="fill:#472B29;"/>
				</g>
				<g>
					<path d="M69.135,38.327c-1.808-0.119-3.365,1.13-3.476,2.789c-0.014,0.206-0.005,0.409,0.025,0.606       c-0.349-0.394-0.865-0.661-1.458-0.7c-1.085-0.071-2.022,0.645-2.158,1.62c-0.197-0.054-0.403-0.09-0.616-0.104       c-1.582-0.104-2.944,0.989-3.042,2.441" style="fill:#FDFCEF;"/>
					<path d="M58.411,45.228c-0.006,0-0.012,0-0.017-0.001c-0.138-0.009-0.242-0.128-0.233-0.266       c0.106-1.588,1.577-2.816,3.308-2.673c0.135,0.008,0.272,0.025,0.408,0.052c0.273-0.968,1.25-1.651,2.366-1.567       c0.425,0.027,0.823,0.16,1.163,0.382c0.001-0.019,0.002-0.037,0.003-0.057c0.121-1.793,1.792-3.159,3.742-3.021       c0.138,0.009,0.242,0.128,0.233,0.266c-0.009,0.138-0.126,0.253-0.266,0.232c-1.653-0.105-3.108,1.037-3.21,2.557       c-0.013,0.185-0.005,0.37,0.023,0.552c0.017,0.109-0.041,0.217-0.141,0.265c-0.099,0.047-0.219,0.022-0.293-0.061       c-0.318-0.359-0.788-0.584-1.288-0.617c-0.933-0.043-1.775,0.556-1.894,1.404c-0.01,0.071-0.05,0.135-0.11,0.175       c-0.061,0.04-0.133,0.051-0.204,0.032c-0.188-0.051-0.378-0.083-0.566-0.096c-1.443-0.088-2.688,0.896-2.776,2.208       C58.651,45.127,58.541,45.228,58.411,45.228z" style="fill:#472B29;"/>
				</g>
				<g>
					<path d="M85.709,39.995c-1.699-0.801-3.664-0.234-4.389,1.267c-0.09,0.186-0.157,0.379-0.201,0.574" style="fill:#FDFCEF;"/>
					<path d="M81.119,42.086c-0.018,0-0.037-0.002-0.056-0.006c-0.134-0.031-0.219-0.165-0.188-0.3       c0.049-0.215,0.123-0.426,0.219-0.626c0.784-1.622,2.903-2.242,4.721-1.385c0.125,0.06,0.179,0.208,0.12,0.333       c-0.059,0.126-0.21,0.177-0.333,0.12c-1.574-0.742-3.394-0.227-4.058,1.148c-0.08,0.167-0.142,0.342-0.182,0.521       C81.337,42.007,81.234,42.086,81.119,42.086z" style="fill:#472B29;"/>
				</g>
			</g>
			<g>
				<g>
					<path d="M18.369,47.962H8.338c-0.276,0-0.5-0.224-0.5-0.5s0.224-0.5,0.5-0.5h10.03c0.276,0,0.5,0.224,0.5,0.5       S18.645,47.962,18.369,47.962z" style="fill:#FFFFFF;"/>
					<path d="M21.25,47.962h-1.446c-0.276,0-0.5-0.224-0.5-0.5s0.224-0.5,0.5-0.5h1.446c0.276,0,0.5,0.224,0.5,0.5       S21.526,47.962,21.25,47.962z" style="fill:#FFFFFF;"/>
					<path d="M25.304,47.962h-2.546c-0.276,0-0.5-0.224-0.5-0.5s0.224-0.5,0.5-0.5h2.546c0.276,0,0.5,0.224,0.5,0.5       S25.58,47.962,25.304,47.962z" style="fill:#FFFFFF;"/>
				</g>
				<g>
					<path d="M25.304,49.827h-9.616c-0.276,0-0.5-0.224-0.5-0.5s0.224-0.5,0.5-0.5h9.616c0.276,0,0.5,0.224,0.5,0.5       S25.58,49.827,25.304,49.827z" style="fill:#FFFFFF;"/>
					<path d="M13.956,49.827h-0.58c-0.276,0-0.5-0.224-0.5-0.5s0.224-0.5,0.5-0.5h0.58c0.276,0,0.5,0.224,0.5,0.5       S14.233,49.827,13.956,49.827z" style="fill:#FFFFFF;"/>
					<path d="M11.579,49.827h-1.456c-0.276,0-0.5-0.224-0.5-0.5s0.224-0.5,0.5-0.5h1.456c0.276,0,0.5,0.224,0.5,0.5       S11.856,49.827,11.579,49.827z" style="fill:#FFFFFF;"/>
				</g>
				<path d="M20.715,46.097h-5.027c-0.276,0-0.5-0.224-0.5-0.5s0.224-0.5,0.5-0.5h5.027c0.276,0,0.5,0.224,0.5,0.5      S20.992,46.097,20.715,46.097z" style="fill:#FFFFFF;"/>
				<path d="M20.715,44.232h-1.257c-0.276,0-0.5-0.224-0.5-0.5s0.224-0.5,0.5-0.5h1.257c0.276,0,0.5,0.224,0.5,0.5      S20.992,44.232,20.715,44.232z" style="fill:#FFFFFF;"/>
				<path d="M17.447,51.692h-1.759c-0.276,0-0.5-0.224-0.5-0.5s0.224-0.5,0.5-0.5h1.759c0.276,0,0.5,0.224,0.5,0.5      S17.723,51.692,17.447,51.692z" style="fill:#FFFFFF;"/>
			</g>
			<g>
				<g>
					<g>
						<g>
							<path d="M69.635,30.431l2.491-0.038c0.142-5.083-5.983-4.773-5.983-4.773l-30.167-0.004         c-2.314,0-4.227,2.526-4.227,4.593v26.08l-5.998-0.017c-0.005,0.217,0.003,12.478,0.022,12.673         c0.392,4.033,5.651,3.582,5.651,3.582l35.105,0.025c1.892,0.176,3.107-2.082,3.107-3.336S69.635,30.431,69.635,30.431" style="fill:#EDF7F5;"/>
						</g>
					</g>
				</g>
				<g>
					<g>
						<g>
							<path d="M31.242,70.84c-0.387,0-0.7-0.313-0.7-0.7s0.313-0.7,0.7-0.7c0.127,0,0.161-0.036,0.182-0.058         c0.126-0.137,0.26-0.524,0.18-1.6l0.047-37.574c0-2.396,2.198-5.293,4.928-5.293l30.167,0.004         c0.101-0.009,3.353-0.146,5.294,1.75c0.964,0.942,1.431,2.202,1.388,3.743c-0.011,0.378-0.32,0.68-0.699,0.681l-22.937,0.038         c0,0,0,0-0.001,0c-0.386,0-0.699-0.312-0.7-0.699c0-0.387,0.312-0.7,0.699-0.701l22.214-0.037         c-0.089-0.825-0.399-1.49-0.939-2.02c-1.498-1.47-4.255-1.355-4.285-1.355l-30.201-0.003c-1.867,0-3.527,2.177-3.527,3.894         l-0.049,37.522c0.068,0.892,0.058,1.945-0.552,2.603C32.142,70.666,31.725,70.84,31.242,70.84z" style="fill:#472B29;"/>
							<path d="M67.343,73.237c-0.09,0-0.181-0.005-0.272-0.013l-34.988-0.022c-1.997,0.166-5.975-0.479-6.338-4.205         c-0.026-0.271-0.027-12.621-0.024-12.723c0.008-0.381,0.319-0.685,0.7-0.685c0,0,0.001,0,0.001,0l5.331,0.017         c0.387,0.001,0.699,0.315,0.698,0.702c-0.001,0.386-0.314,0.698-0.7,0.698c0,0-0.001,0-0.002,0l-4.628-0.015         c0,2.569,0.004,11.489,0.021,11.898c0.318,3.251,4.699,2.931,4.885,2.914l35.111,0.022c0.526,0.048,0.963-0.12,1.368-0.489         c0.647-0.59,1.034-1.551,1.034-2.139V30.431c0-0.387,0.313-0.7,0.7-0.7s0.7,0.313,0.7,0.7v38.768         c0,1.068-0.613,2.373-1.491,3.174C68.823,72.941,68.1,73.237,67.343,73.237z" style="fill:#472B29;"/>
							<path d="M46.784,31.131h-3.007c-0.387,0-0.7-0.313-0.7-0.7s0.313-0.7,0.7-0.7h3.007c0.387,0,0.7,0.313,0.7,0.7         S47.17,31.131,46.784,31.131z" style="fill:#472B29;"/>
						</g>
					</g>
					<g>
						<g>
							<path d="M46.483,39.526H35.658c-0.207,0-0.375-0.168-0.375-0.375s0.168-0.375,0.375-0.375h10.825         c0.207,0,0.375,0.168,0.375,0.375S46.69,39.526,46.483,39.526z" style="fill:#472B29;"/>
							<path d="M68.132,39.526H48.287c-0.207,0-0.375-0.168-0.375-0.375s0.168-0.375,0.375-0.375h19.845         c0.207,0,0.375,0.168,0.375,0.375S68.339,39.526,68.132,39.526z" style="fill:#472B29;"/>
						</g>
						<path d="M68.132,45.54H49.49c-0.207,0-0.375-0.168-0.375-0.375s0.168-0.375,0.375-0.375h18.642        c0.207,0,0.375,0.168,0.375,0.375S68.339,45.54,68.132,45.54z" style="fill:#472B29;"/>
						<path d="M68.132,49.749H49.49c-0.207,0-0.375-0.168-0.375-0.375s0.168-0.375,0.375-0.375h18.642        c0.207,0,0.375,0.168,0.375,0.375S68.339,49.749,68.132,49.749z" style="fill:#472B29;"/>
						<g>
							<polyline points="45.881,45.766 45.881,53.583 35.658,53.583 35.658,43.962 44.077,43.962        " style="fill:#A8DBDB;"/>
							<path d="M45.881,53.959H35.658c-0.207,0-0.375-0.168-0.375-0.375v-9.622c0-0.207,0.168-0.375,0.375-0.375h8.419         c0.207,0,0.375,0.168,0.375,0.375s-0.168,0.375-0.375,0.375h-8.044v8.872h9.473v-7.443c0-0.207,0.168-0.375,0.375-0.375         s0.375,0.168,0.375,0.375v7.818C46.256,53.791,46.088,53.959,45.881,53.959z" style="fill:#472B29;"/>
						</g>
						<path d="M68.132,53.959H49.49c-0.207,0-0.375-0.168-0.375-0.375s0.168-0.375,0.375-0.375h18.642        c0.207,0,0.375,0.168,0.375,0.375S68.339,53.959,68.132,53.959z" style="fill:#472B29;"/>
						<g>
							<path d="M59.713,35.918h-8.419c-0.207,0-0.375-0.168-0.375-0.375s0.168-0.375,0.375-0.375h8.419         c0.207,0,0.375,0.168,0.375,0.375S59.92,35.918,59.713,35.918z" style="fill:#472B29;"/>
							<path d="M68.132,35.918h-6.615c-0.207,0-0.375-0.168-0.375-0.375s0.168-0.375,0.375-0.375h6.615         c0.207,0,0.375,0.168,0.375,0.375S68.339,35.918,68.132,35.918z" style="fill:#472B29;"/>
							<path d="M49.49,35.918H35.658c-0.207,0-0.375-0.168-0.375-0.375s0.168-0.375,0.375-0.375H49.49         c0.207,0,0.375,0.168,0.375,0.375S49.697,35.918,49.49,35.918z" style="fill:#472B29;"/>
						</g>
						<path d="M54.301,67.188H35.658c-0.207,0-0.375-0.168-0.375-0.375s0.168-0.375,0.375-0.375h18.643        c0.207,0,0.375,0.168,0.375,0.375S54.508,67.188,54.301,67.188z" style="fill:#472B29;"/>
						<path d="M54.301,62.979H35.658c-0.207,0-0.375-0.168-0.375-0.375s0.168-0.375,0.375-0.375h18.643        c0.207,0,0.375,0.168,0.375,0.375S54.508,62.979,54.301,62.979z" style="fill:#472B29;"/>
						<g>
							<polyline points="57.307,66.814 57.307,58.394 67.531,58.394 67.531,68.016 59.713,68.016        " style="fill:#A8DBDB;"/>
							<path d="M67.531,68.391h-7.818c-0.207,0-0.375-0.168-0.375-0.375s0.168-0.375,0.375-0.375h7.443v-8.872h-9.473         v8.044c0,0.207-0.168,0.375-0.375,0.375s-0.375-0.168-0.375-0.375v-8.419c0-0.207,0.168-0.375,0.375-0.375h10.223         c0.207,0,0.375,0.168,0.375,0.375v9.622C67.906,68.223,67.738,68.391,67.531,68.391z" style="fill:#472B29;"/>
						</g>
						<path d="M54.301,58.769H35.658c-0.207,0-0.375-0.168-0.375-0.375s0.168-0.375,0.375-0.375h18.643        c0.207,0,0.375,0.168,0.375,0.375S54.508,58.769,54.301,58.769z" style="fill:#472B29;"/>
					</g>
				</g>
				<path d="M39.285,47.015c-0.038,0-0.075-0.017-0.1-0.05c-0.042-0.055-0.031-0.133,0.024-0.175l3.851-2.929      c0.055-0.04,0.133-0.032,0.175,0.024c0.042,0.055,0.031,0.133-0.024,0.175L39.36,46.99      C39.338,47.006,39.311,47.015,39.285,47.015z" style="fill:#472B29;"/>
				<path d="M39.285,47.015c-0.038,0-0.075-0.017-0.1-0.05c-0.042-0.055-0.031-0.133,0.024-0.175l3.851-2.929      c0.055-0.04,0.133-0.032,0.175,0.024c0.042,0.055,0.031,0.133-0.024,0.175L39.36,46.99      C39.338,47.006,39.311,47.015,39.285,47.015z" style="fill:#472B29;"/>
				<path d="M41.675,48.576c-0.038,0-0.075-0.017-0.1-0.05c-0.042-0.055-0.031-0.133,0.024-0.175l3.851-2.929      c0.054-0.04,0.133-0.031,0.175,0.024c0.042,0.055,0.031,0.133-0.024,0.175l-3.851,2.929      C41.728,48.567,41.702,48.576,41.675,48.576z" style="fill:#472B29;"/>
				<path d="M40.77,47.632c-0.038,0-0.075-0.017-0.1-0.05c-0.042-0.055-0.031-0.133,0.024-0.175l3.851-2.929      c0.055-0.04,0.133-0.032,0.175,0.024c0.042,0.055,0.031,0.133-0.024,0.175l-3.851,2.929      C40.823,47.624,40.796,47.632,40.77,47.632z" style="fill:#472B29;"/>
				<path d="M42.03,49.886c-0.038,0-0.075-0.017-0.1-0.05c-0.042-0.055-0.031-0.133,0.024-0.175l3.851-2.929      c0.055-0.041,0.133-0.032,0.175,0.024c0.042,0.055,0.031,0.133-0.024,0.175l-3.851,2.929      C42.083,49.878,42.057,49.886,42.03,49.886z" style="fill:#472B29;"/>
				<path d="M41.879,51.734c-0.038,0-0.075-0.017-0.1-0.05c-0.042-0.055-0.031-0.133,0.024-0.175l3.851-2.929      c0.055-0.041,0.133-0.032,0.175,0.024c0.042,0.055,0.031,0.133-0.024,0.175l-3.851,2.929      C41.932,51.725,41.905,51.734,41.879,51.734z" style="fill:#472B29;"/>
				<path d="M37.044,47.015c-0.038,0-0.075-0.017-0.1-0.05c-0.042-0.055-0.031-0.133,0.024-0.175l3.851-2.929      c0.055-0.04,0.133-0.032,0.175,0.024c0.042,0.055,0.031,0.133-0.024,0.175L37.12,46.99      C37.098,47.006,37.071,47.015,37.044,47.015z" style="fill:#472B29;"/>
				<path d="M41.932,53.442c-0.038,0-0.075-0.017-0.1-0.049c-0.042-0.056-0.031-0.134,0.024-0.176l3.851-2.93      c0.054-0.041,0.133-0.031,0.175,0.023c0.042,0.056,0.031,0.134-0.024,0.176l-3.851,2.93      C41.985,53.433,41.958,53.442,41.932,53.442z" style="fill:#472B29;"/>
				<path d="M58.858,62.988c-0.038,0-0.075-0.017-0.1-0.05c-0.042-0.055-0.031-0.133,0.024-0.175l5.701-4.335      c0.054-0.04,0.133-0.031,0.175,0.024c0.042,0.055,0.031,0.133-0.024,0.175l-5.701,4.335      C58.911,62.979,58.884,62.988,58.858,62.988z" style="fill:#472B29;"/>
				<path d="M63.098,63.142c-0.037,0-0.073-0.016-0.098-0.047c-0.043-0.054-0.034-0.133,0.02-0.176l4.282-3.415      c0.056-0.043,0.134-0.034,0.176,0.02c0.043,0.054,0.034,0.133-0.02,0.176l-4.282,3.415      C63.152,63.133,63.125,63.142,63.098,63.142z" style="fill:#472B29;"/>
				<path d="M60.704,63.331c-0.038,0-0.075-0.017-0.1-0.05c-0.042-0.055-0.031-0.133,0.024-0.175l6.024-4.582      c0.055-0.04,0.133-0.032,0.175,0.024c0.042,0.055,0.031,0.133-0.024,0.175l-6.024,4.582      C60.758,63.322,60.731,63.331,60.704,63.331z" style="fill:#472B29;"/>
				<path d="M63.453,64.453c-0.037,0-0.073-0.017-0.098-0.048c-0.042-0.054-0.034-0.132,0.021-0.175l4.078-3.229      c0.054-0.043,0.133-0.034,0.176,0.021c0.042,0.054,0.034,0.132-0.021,0.175l-4.078,3.229      C63.507,64.444,63.48,64.453,63.453,64.453z" style="fill:#472B29;"/>
				<path d="M63.301,66.3c-0.038,0-0.075-0.017-0.1-0.05c-0.042-0.055-0.031-0.133,0.024-0.175l4.229-3.217      c0.054-0.041,0.133-0.032,0.175,0.024c0.041,0.055,0.031,0.133-0.024,0.175l-4.229,3.217C63.354,66.292,63.328,66.3,63.301,66.3      z" style="fill:#472B29;"/>
				<path d="M57.525,62.298c-0.038,0-0.075-0.017-0.1-0.05c-0.042-0.055-0.031-0.133,0.024-0.175l4.793-3.646      c0.055-0.04,0.133-0.031,0.175,0.024c0.042,0.055,0.031,0.133-0.024,0.175L57.6,62.273      C57.578,62.29,57.551,62.298,57.525,62.298z" style="fill:#472B29;"/>
				<path d="M63.354,68.007c-0.038,0-0.075-0.017-0.1-0.05c-0.042-0.055-0.031-0.133,0.024-0.175l3.851-2.929      c0.055-0.04,0.133-0.032,0.175,0.024c0.042,0.055,0.031,0.133-0.024,0.175l-3.851,2.929      C63.407,67.999,63.38,68.007,63.354,68.007z" style="fill:#472B29;"/>
				<path d="M57.169,60.821c-0.038,0-0.075-0.017-0.1-0.05c-0.042-0.055-0.031-0.133,0.024-0.175l3.123-2.376      c0.055-0.04,0.133-0.031,0.175,0.023c0.042,0.056,0.031,0.134-0.024,0.176l-3.123,2.376      C57.223,60.812,57.196,60.821,57.169,60.821z" style="fill:#472B29;"/>
			</g>
			<g>
				<g>
					<g>
						<path d="M38.997,74.242c1.883,0,3.517,0,3.54,0c2.11,0,3.821-1.674,3.821-3.739c0-1.802-1.302-3.305-3.035-3.66        c0.02-0.158,0.034-0.317,0.034-0.48c0-2.139-1.772-3.873-3.957-3.873c-1.29,0-2.433,0.607-3.155,1.543        c-0.185-2.381-2.358-4.218-4.9-3.913c-1.859,0.223-3.397,1.629-3.739,3.431c-0.11,0.578-0.098,1.139,0.011,1.665        c-0.498-0.525-1.208-0.856-1.998-0.856c-1.446,0-2.627,1.102-2.72,2.494c-0.657-0.142-1.371-0.133-2.123,0.143        c-1.438,0.528-2.462,1.853-2.522,3.356c-0.085,2.133,1.657,3.889,3.818,3.889c0.164,0,0.741,0,0.874,0h7.934 M32.52,74.242        h0.36" style="fill:#FDFCEF;"/>
						<path d="M42.537,74.742h-3.541c-0.276,0-0.5-0.224-0.5-0.5s0.224-0.5,0.5-0.5h3.541        c1.831,0,3.32-1.453,3.32-3.239c0-1.524-1.108-2.857-2.635-3.169c-0.256-0.053-0.429-0.294-0.396-0.553        c0.018-0.138,0.03-0.276,0.03-0.418c0-1.86-1.551-3.373-3.457-3.373c-1.092,0-2.098,0.491-2.759,1.349        c-0.127,0.165-0.341,0.231-0.539,0.174c-0.198-0.06-0.339-0.234-0.355-0.44c-0.079-1.02-0.565-1.943-1.369-2.604        c-0.829-0.681-1.881-0.979-2.974-0.854c-1.646,0.197-3.005,1.442-3.307,3.029c-0.094,0.494-0.09,0.988,0.01,1.47        c0.045,0.219-0.06,0.441-0.258,0.545c-0.197,0.103-0.439,0.063-0.595-0.1c-0.428-0.451-1.009-0.699-1.635-0.699        c-1.169,0-2.145,0.891-2.221,2.027c-0.01,0.146-0.082,0.279-0.198,0.366c-0.116,0.087-0.266,0.121-0.407,0.089        c-0.638-0.138-1.24-0.098-1.845,0.125c-1.262,0.463-2.144,1.631-2.195,2.905c-0.035,0.875,0.283,1.708,0.895,2.345        c0.635,0.66,1.496,1.024,2.423,1.024h8.808c0.276,0,0.5,0.224,0.5,0.5s-0.224,0.5-0.5,0.5H22.07        c-1.185,0-2.331-0.485-3.145-1.332c-0.802-0.835-1.218-1.928-1.172-3.076c0.067-1.675,1.212-3.204,2.849-3.806        c0.611-0.225,1.239-0.31,1.88-0.244c0.344-1.396,1.629-2.424,3.136-2.424c0.493,0,0.977,0.113,1.414,0.322        c0.009-0.241,0.036-0.483,0.082-0.725c0.381-2.01,2.097-3.587,4.17-3.835c1.36-0.169,2.686,0.218,3.727,1.072        c0.747,0.614,1.277,1.409,1.546,2.302c0.791-0.648,1.785-1.007,2.842-1.007c2.458,0,4.457,1.962,4.457,4.373        c0,0.034,0,0.068-0.001,0.103c1.764,0.555,3.003,2.188,3.003,4.037C46.858,72.84,44.92,74.742,42.537,74.742z M32.879,74.742        H32.52c-0.276,0-0.5-0.224-0.5-0.5s0.224-0.5,0.5-0.5h0.359c0.276,0,0.5,0.224,0.5,0.5S33.156,74.742,32.879,74.742z" style="fill:#472B29;"/>
					</g>
					<path d="M40.83,68.939c-0.018,0-0.036-0.002-0.054-0.006c-0.135-0.03-0.22-0.164-0.19-0.299       c0.037-0.166,0.094-0.327,0.169-0.479c0.604-1.224,2.274-1.674,3.722-1.006c0.125,0.058,0.18,0.206,0.122,0.331       c-0.059,0.126-0.207,0.18-0.332,0.122c-1.201-0.556-2.578-0.208-3.063,0.774c-0.058,0.116-0.101,0.239-0.129,0.367       C41.048,68.86,40.945,68.939,40.83,68.939z" style="fill:#472B29;"/>
				</g>
				<g>
					<path d="M35.671,74.742h-1.107c-0.276,0-0.5-0.224-0.5-0.5s0.224-0.5,0.5-0.5h1.107c0.276,0,0.5,0.224,0.5,0.5       S35.947,74.742,35.671,74.742z" style="fill:#472B29;"/>
				</g>
			</g>
			<g>
				<g>
					<g>
						<polyline points="56.938,66.862 50.768,75.236 56.953,75.32 58.866,81.203 64.983,72.9       " style="fill:#EE3E54;"/>
						<path d="M58.866,81.703c-0.026,0-0.053-0.002-0.08-0.007c-0.185-0.029-0.337-0.16-0.396-0.339l-1.801-5.542        l-5.828-0.079c-0.188-0.003-0.357-0.109-0.441-0.277s-0.066-0.368,0.045-0.52l6.17-8.374c0.163-0.222,0.478-0.271,0.699-0.105        c0.223,0.164,0.27,0.477,0.106,0.699l-5.593,7.591l5.212,0.07c0.214,0.003,0.402,0.142,0.469,0.346l1.611,4.957l5.541-7.52        c0.163-0.222,0.478-0.271,0.699-0.105c0.223,0.164,0.27,0.477,0.106,0.699L59.268,81.5        C59.173,81.629,59.023,81.703,58.866,81.703z" style="fill:#472B29;"/>
					</g>
					<g>
						<line x1="56.953" y1="75.27" x2="60.313" y2="70.711" style="fill:#EE3E54;"/>
						<path d="M56.953,75.62c-0.072,0-0.145-0.021-0.207-0.067c-0.156-0.115-0.189-0.334-0.074-0.49l3.359-4.56        c0.114-0.155,0.333-0.188,0.489-0.074c0.156,0.115,0.189,0.334,0.074,0.49l-3.359,4.56        C57.167,75.571,57.06,75.62,56.953,75.62z" style="fill:#472B29;"/>
					</g>
					<g>
						<line x1="58.297" y1="73.607" x2="59.47" y2="76.92" style="fill:#EE3E54;"/>
						<path d="M59.47,77.17c-0.103,0-0.199-0.064-0.236-0.167l-1.172-3.312c-0.046-0.13,0.022-0.272,0.152-0.318        c0.129-0.046,0.272,0.022,0.319,0.152l1.172,3.312c0.046,0.13-0.022,0.272-0.152,0.318        C59.525,77.165,59.497,77.17,59.47,77.17z" style="fill:#472B29;"/>
					</g>
					<g>
						<line x1="59.359" y1="72.006" x2="61.339" y2="77.601" style="fill:#EE3E54;"/>
						<path d="M61.339,77.851c-0.103,0-0.199-0.064-0.236-0.167l-1.98-5.596c-0.046-0.13,0.022-0.272,0.152-0.318        c0.13-0.047,0.273,0.021,0.319,0.152l1.98,5.596c0.046,0.13-0.022,0.272-0.152,0.318        C61.394,77.846,61.367,77.851,61.339,77.851z" style="fill:#472B29;"/>
					</g>
					<g>
						<line x1="60.936" y1="71.146" x2="62.607" y2="75.866" style="fill:#EE3E54;"/>
						<path d="M62.607,76.116c-0.103,0-0.199-0.064-0.236-0.167l-1.671-4.72c-0.046-0.13,0.022-0.272,0.152-0.318        s0.272,0.022,0.319,0.152l1.671,4.72c0.046,0.13-0.022,0.272-0.152,0.318C62.663,76.111,62.635,76.116,62.607,76.116z" style="fill:#472B29;"/>
					</g>
					<g>
						<line x1="59.729" y1="77.602" x2="59.819" y2="77.857" style="fill:#EE3E54;"/>
						<path d="M59.819,78.107c-0.103,0-0.199-0.063-0.236-0.166l-0.09-0.255c-0.046-0.131,0.022-0.273,0.152-0.319        c0.13-0.047,0.273,0.021,0.319,0.151l0.09,0.255c0.046,0.131-0.022,0.273-0.152,0.319        C59.875,78.102,59.847,78.107,59.819,78.107z" style="fill:#472B29;"/>
					</g>
				</g>
				<g>
					<g>
						<polyline points="76.687,66.862 82.857,75.236 76.672,75.32 74.76,81.203 68.642,72.9       " style="fill:#EE3E54;"/>
						<path d="M74.76,81.703c-0.157,0-0.308-0.074-0.402-0.203l-6.118-8.303c-0.164-0.223-0.117-0.535,0.106-0.699        c0.221-0.166,0.535-0.116,0.699,0.105l5.541,7.52l1.611-4.957c0.066-0.204,0.255-0.343,0.469-0.346l5.213-0.07l-5.593-7.591        c-0.164-0.223-0.117-0.535,0.106-0.699c0.221-0.166,0.535-0.116,0.699,0.105l6.17,8.374c0.111,0.151,0.129,0.352,0.045,0.52        s-0.253,0.274-0.441,0.277l-5.828,0.079l-1.801,5.542c-0.058,0.179-0.211,0.31-0.396,0.339        C74.813,81.701,74.786,81.703,74.76,81.703z" style="fill:#472B29;"/>
					</g>
					<g>
						<line x1="76.672" y1="75.27" x2="73.396" y2="70.824" style="fill:#EE3E54;"/>
						<path d="M76.672,75.62c-0.107,0-0.214-0.049-0.282-0.142l-3.276-4.446c-0.115-0.156-0.082-0.375,0.074-0.49        c0.156-0.114,0.375-0.081,0.489,0.074l3.276,4.446c0.115,0.156,0.082,0.375-0.074,0.49        C76.817,75.598,76.744,75.62,76.672,75.62z" style="fill:#472B29;"/>
					</g>
					<g>
						<line x1="75.328" y1="73.607" x2="74.156" y2="76.92" style="fill:#EE3E54;"/>
						<path d="M74.156,77.17c-0.028,0-0.056-0.005-0.083-0.015c-0.13-0.046-0.198-0.188-0.152-0.318l1.172-3.312        c0.047-0.13,0.188-0.196,0.319-0.152c0.13,0.046,0.198,0.188,0.152,0.318l-1.172,3.312        C74.355,77.105,74.259,77.17,74.156,77.17z" style="fill:#472B29;"/>
					</g>
					<g>
						<line x1="74.267" y1="72.006" x2="72.286" y2="77.601" style="fill:#EE3E54;"/>
						<path d="M72.286,77.851c-0.028,0-0.056-0.005-0.083-0.015c-0.13-0.046-0.198-0.188-0.152-0.318l1.98-5.596        c0.046-0.13,0.189-0.197,0.319-0.152c0.13,0.046,0.198,0.188,0.152,0.318l-1.98,5.596        C72.486,77.787,72.39,77.851,72.286,77.851z" style="fill:#472B29;"/>
					</g>
					<g>
						<line x1="72.689" y1="71.146" x2="71.018" y2="75.866" style="fill:#EE3E54;"/>
						<path d="M71.018,76.116c-0.028,0-0.056-0.005-0.083-0.015c-0.13-0.046-0.198-0.188-0.152-0.318l1.67-4.72        c0.047-0.13,0.19-0.196,0.319-0.152c0.13,0.046,0.198,0.188,0.152,0.318l-1.67,4.72        C71.218,76.051,71.121,76.116,71.018,76.116z" style="fill:#472B29;"/>
					</g>
					<g>
						<line x1="73.896" y1="77.602" x2="73.806" y2="77.857" style="fill:#EE3E54;"/>
						<path d="M73.806,78.107c-0.028,0-0.056-0.005-0.083-0.015c-0.13-0.046-0.198-0.188-0.152-0.319l0.09-0.255        c0.047-0.13,0.19-0.195,0.319-0.151c0.13,0.046,0.198,0.188,0.152,0.319l-0.09,0.255        C74.005,78.043,73.909,78.107,73.806,78.107z" style="fill:#472B29;"/>
					</g>
				</g>
				<g>
					<circle cx="66.886" cy="62.171" r="10.688" style="fill:#FBCD59;"/>
					<path d="M66.886,73.359c-6.169,0-11.187-5.019-11.187-11.188s5.019-11.188,11.187-11.188       s11.188,5.019,11.188,11.188S73.055,73.359,66.886,73.359z M66.886,51.984c-5.617,0-10.187,4.57-10.187,10.188       s4.57,10.188,10.187,10.188s10.188-4.57,10.188-10.188S72.503,51.984,66.886,51.984z" style="fill:#472B29;"/>
				</g>
				<g>
					<path d="M75.445,65.487c-0.028,0-0.057-0.005-0.084-0.015c-0.13-0.047-0.197-0.189-0.151-0.319       c0.342-0.955,0.516-1.958,0.516-2.981c0-4.874-3.965-8.84-8.839-8.84c-0.138,0-0.25-0.112-0.25-0.25s0.112-0.25,0.25-0.25       c5.15,0,9.339,4.189,9.339,9.34c0,1.081-0.183,2.141-0.545,3.149C75.643,65.423,75.547,65.487,75.445,65.487z" style="fill:#472B29;"/>
					<path d="M61.323,69.61c-0.054,0-0.107-0.017-0.153-0.053c-2.303-1.784-3.624-4.476-3.624-7.386       c0-3.088,1.524-5.974,4.077-7.717c0.115-0.079,0.271-0.049,0.348,0.065c0.078,0.113,0.048,0.27-0.065,0.347       c-2.417,1.651-3.859,4.382-3.859,7.305c0,2.754,1.25,5.302,3.43,6.991c0.109,0.084,0.129,0.241,0.044,0.351       C61.472,69.577,61.398,69.61,61.323,69.61z" style="fill:#472B29;"/>
					<path d="M62.848,70.567c-0.038,0-0.076-0.009-0.111-0.026c-0.24-0.119-0.474-0.248-0.703-0.387       c-0.118-0.071-0.155-0.226-0.084-0.344c0.073-0.118,0.227-0.155,0.344-0.084c0.216,0.131,0.438,0.254,0.666,0.367       c0.124,0.062,0.174,0.211,0.113,0.335C63.029,70.516,62.94,70.567,62.848,70.567z" style="fill:#472B29;"/>
					<path d="M66.886,71.51c-0.946,0-1.879-0.141-2.774-0.418c-0.132-0.041-0.206-0.182-0.165-0.313       c0.041-0.133,0.177-0.202,0.313-0.165c0.847,0.264,1.73,0.396,2.625,0.396c0.138,0,0.25,0.112,0.25,0.25       S67.024,71.51,66.886,71.51z" style="fill:#472B29;"/>
				</g>
				<g>
					<polygon points="66.886,59.064 67.895,61.11 70.152,61.438 68.519,63.03 68.905,65.278 66.886,64.217        64.866,65.278 65.252,63.03 63.619,61.438 65.876,61.11      " style="fill:#E0A825;"/>
					<path d="M68.905,65.628c-0.056,0-0.112-0.013-0.163-0.04l-1.856-0.976l-1.856,0.976       c-0.119,0.063-0.262,0.051-0.369-0.026c-0.108-0.078-0.162-0.211-0.139-0.343l0.354-2.066l-1.502-1.463       c-0.096-0.094-0.13-0.232-0.089-0.359c0.042-0.126,0.151-0.219,0.283-0.238l2.075-0.302l0.928-1.881       c0.059-0.119,0.181-0.194,0.314-0.194l0,0c0.133,0,0.255,0.075,0.314,0.194l0.928,1.881l2.076,0.302       c0.132,0.02,0.241,0.112,0.283,0.238c0.041,0.127,0.007,0.266-0.089,0.359l-1.502,1.463l0.354,2.066       c0.023,0.132-0.031,0.265-0.139,0.343C69.049,65.605,68.977,65.628,68.905,65.628z M66.886,63.867       c0.056,0,0.112,0.013,0.163,0.04l1.391,0.731l-0.266-1.549c-0.02-0.114,0.018-0.229,0.101-0.311l1.125-1.097l-1.556-0.226       c-0.114-0.017-0.212-0.089-0.264-0.191l-0.695-1.41l-0.696,1.41c-0.051,0.103-0.149,0.175-0.264,0.191l-1.555,0.226       l1.125,1.097c0.083,0.081,0.12,0.196,0.101,0.311l-0.266,1.549l1.391-0.731C66.774,63.879,66.829,63.867,66.886,63.867z" style="fill:#472B29;"/>
				</g>
			</g>
		</g>
	</g>
</g>
<g id="document_calendar">
	<g id="calendar">
	</g>
</g>
<g id="travel_globe">
</g>
<g id="ABC-book_x0A_">
</g>
<g id="book_romance">
</g>
<g id="book_art">
</g>
<g id="book_travel">
</g>
<g id="book_math">
</g>
<g id="book_philosophy">
</g>
<g id="book_law">
</g>
<g id="passport_wallet">
</g>
<g id="passport_fly_ticket">
</g>
<g id="passport_id">
</g>
<g id="passport">
</g>
<g id="hotel_room_key">
	<g id="Layer_34">
	</g>
</g>
<g id="hotel_door">
</g>
<g id="dinner_hotel">
</g>
<g id="hotel_bed">
</g>
<g id="sun_umbrella">
</g>
<g id="hotel_door_hanger">
</g>
<g id="wayfinding">
</g>
<g id="hotel_bell">
</g>
<g id="towel">
</g>
<g id="hotel">
</g>
<g id="plate">
</g>
<g id="honey">
</g>
<g id="donut">
</g>
<g id="tea_1_">
</g>
<g id="milk">
</g>
<g id="barista">
</g>
<g id="coffee_cup">
</g>
<g id="tropical_drink">
</g>
<g id="coffee_mug">
</g>
<g id="juice_1_">
</g>
<g id="ice_cream_cone">
</g>
<g id="ice_cream">
</g>
<g id="children_ball">
</g>
<g id="pocketknife">
</g>
<g id="game_kayak">
</g>
<g id="game_soccer">
</g>
<g id="game_ping_pong">
</g>
<g id="game_football">
</g>
<g id="game_baseball">
</g>
<g id="game_golf">
</g>
<g id="game_pool">
</g>
<g id="game_bowling">
</g>
<g id="game_chess">
</g>
<g id="game_dart">
</g>
<g id="casino_cards_diamond">
</g>
<g id="casino_cards_club">
</g>
<g id="casino_cards_spades_x0A_">
</g>
<g id="casino_black_jack">
</g>
<g id="casino_domino">
</g>
<g id="casino_cards_heart">
</g>
<g id="casino_roulette">
</g>
<g id="casino_tokens">
</g>
<g id="casino">
</g>
<g id="cinema_ticket">
</g>
<g id="cinema">
</g>
<g id="law">
</g>
<g id="justice">
</g>
<g id="bank_coins">
</g>
<g id="store_front">
</g>
</svg>
