<svg class="logo" version="1.1" xmlns="http://www.w3.org/2000/svg" viewBox="0 0 433.59 98.63" aria-labelledby="Credit-Union-name">
<defs><style>.cls-1{fill:#fff;}</style></defs>
<title id="Credit-Union-name" stroke="none" fill="#000000" stroke-width="1px">Coast Capital Savings</title>
<path class="cls-1" d="M333.53 32.54a7.53 7.53 0 0 0-1.8 2.74l-.34-.07v-4.77h-3.32v44h3.32V55.52l.35-.07c1.53 3.56 4.82 5.61 9 5.61 8.51 0 12.39-8.07 12.39-15.57 0-5.83-2.62-15.69-12.45-15.69a10 10 0 0 0-7.15 2.74zm-2.18 14.11v-1.67c.19-8 3.11-12.11 8.69-12.11 7.06 0 9.57 6.29 9.57 12.17s-2.51 12.82-9.57 12.82c-4.12 0-7.12-2.46-8.24-6.74a17.27 17.27 0 0 1-.45-4.47zM356.99 30.43v29.92h3.33V30.43h-3.33zM369.56 20.06v10.37h-6.35v2.82h6.35v19c0 5.75 0 8.64 5.28 8.64a7.94 7.94 0 0 0 4.65-1.39v-3.31a7.41 7.41 0 0 1-4 1.76c-1.81 0-2.66-1.23-2.66-3.86V33.25h6.67v-2.82h-6.67V20.06h-3.26zM412.65 19.93v40.42h3.39V19.93h-3.39zM300.5 34.28a12.26 12.26 0 0 0-1.75 5.13s-.06.91-.08 1.3h3.85c0-1.66.15-4.54 2.06-6.37 1.34-1.27 3.38-1.88 6.06-1.8 7.54.21 7.54 5.08 7.54 7.16v1.67l-3.76.86c-9.64 2.25-16.56 3.86-16.56 10.68 0 .83.26 8.07 9.34 8.07 4.7 0 8.77-2.15 10.38-5.48l.25-.64.34.08v.57c.31 4.43 3.41 4.82 7.77 4.83v-2.62c-1.91 0-3-.25-3.6-.87-1-1-1-2.8-1-5.85v-9.78a22.76 22.76 0 0 0-.38-5.79c-1.41-5-7.18-5.77-10.49-5.77s-7.6.81-9.97 4.62zm.68 18.57c0-4 4.09-5.1 7.37-6l3-.82 4.46-1.21 2.13-.5v2.45c-.05 2.81-.11 5.45-2.59 7.94a12.32 12.32 0 0 1-8.19 3.36c-4.25-.02-6.17-2.63-6.17-5.22zM384.42 34.28a12.18 12.18 0 0 0-1.75 5.13s0 .27-.08.49h3.85c.06-2.67.31-7.37 8.11-7.37 7.54 0 7.54 5 7.54 7.16v1.67l-3.76.86c-9.64 2.25-16.56 3.86-16.56 10.68 0 .83.26 8.07 9.35 8.07 4.69 0 8.77-2.15 10.38-5.48l.25-.64.34.08v.57c.3 4.43 3.41 4.82 7.77 4.83v-2.62c-1.91 0-3-.25-3.59-.87-1-1-1-2.8-1-5.85v-9.78a22.76 22.76 0 0 0-.38-5.79c-1.41-5-7.18-5.77-10.49-5.77s-7.58.82-9.98 4.63zm.68 18.57c0-4 4.08-5.1 7.37-6l3-.81 4.5-1.22 2.13-.5v2.45c-.06 2.81-.12 5.46-2.59 7.94a12.3 12.3 0 0 1-8.19 3.36c-4.3-.02-6.22-2.63-6.22-5.22zM268.22 45.27c0 7.15 3.59 15.5 13.72 15.5 6.05 0 8.66-2.77 9.64-3.82a12.18 12.18 0 0 0 2.22-3.37l.1-.2c.29-.76.93-3.32 1.11-4.08h-3.77l-.37 1.85-.5 1.5c-1.1 3-5.29 5.2-8.29 5.2-7.48 0-10.15-6.58-10.15-12.75 0-7.7 4.11-12.68 10.46-12.68a9.26 9.26 0 0 1 9.2 8.76h3.15a16.35 16.35 0 0 0-.81-4.22c-.84-2.3-3.58-7.55-11.41-7.55-8.55-.01-14.3 6.37-14.3 15.86zM258.6 20.65h-5.73v9.46h-4.76v5.18h4.76v20.04c0 1.88.16 3.59 1.29 4.74s2.57 1.47 5 1.47a29.84 29.84 0 0 0 4.44-.44l.94-.14v-5.31l-.64.21a12.52 12.52 0 0 1-3.15.67c-1.54 0-1.67-.69-1.67-4.58V35.32h5.46v-5.18h-5.46v-9.49h-.49zM221.87 38.65c0 6.55 6.08 8 11 9.14h.15l2.87.58c3.61.7 5.83 1.27 5.83 4.27 0 3.88-4.11 4.46-6.56 4.46-2 0-4.07-.2-5.71-1.6a6.25 6.25 0 0 1-2-5.44v-.61h-6.85l.07 1.07.05.47a12 12 0 0 0 4.65 8.46 16.71 16.71 0 0 0 9.56 2.51c9 0 13.06-5.16 13.06-10 0-6.71-6.73-8.27-10.35-9.11l-2.85-.7c-4.11-1-6.8-1.82-6.8-4.21 0-1.89 1.9-3.89 5.41-3.89a8.71 8.71 0 0 1 5.47 1.67c1.74 1.34 1.9 2.58 2 4.45v.54h6.58l-.08-.83-.07-.5c-1.08-7.52-7.59-10.2-13.31-10.2-7.4.07-12.12 3.75-12.12 9.47zM193.5 34.78a11.69 11.69 0 0 0-1.23 4.45l-.09.75v.38h6.4v-.52c0-1.58 0-5.79 5.92-5.79 6.23 0 6.23 4.71 6.23 7.82v.3l-4.31.34c-9.78.76-12.67 3.2-14.21 5.49a8.58 8.58 0 0 0-1.42 4.78c0 5.25 4.48 9.07 10.65 9.07a13.56 13.56 0 0 0 10-4.43c.67 2.63 2.42 4 5.45 4a10.21 10.21 0 0 0 2.82-.41l.84-.21v-5.52l-.69.3a3.75 3.75 0 0 1-1.46.28c-1.45 0-1.59-.61-1.66-3.71v-9.83c.06-3.91.12-7.62-3.42-10.48-3.14-2.46-7.74-2.65-9.07-2.65-4.98-.01-8.81 1.98-10.75 5.59zm3.85 17.87c0-1.77.73-3.75 6.15-4.91l6.79-1.23.48-.08c0 3.83-.1 4.49-.78 5.95-1.28 2.72-3.94 4.21-7.49 4.21-3.13.06-5.15-1.53-5.15-3.94zM127.97 45.87c0 7.4 4 16 15.41 16 6 0 10.22-2.3 12.69-6.86a15.14 15.14 0 0 0 1.77-5.24l.08-.52.08-.61h-6.53l-.07.47c-.32 2.36-1.07 7.88-8 7.88a7.78 7.78 0 0 1-7-3.77 14.34 14.34 0 0 1-1.89-7.8c0-4.34 1.12-11.63 8.58-11.63a7.16 7.16 0 0 1 7.57 6.44l.07.46h6.71l-.1-.59-.13-.56c-2.22-9.39-10.75-10.41-14.32-10.41-11.02.05-14.92 9.04-14.92 16.74zM159.64 45.8c0 7.43 4 16.11 15.22 16.11 9 0 15-6.57 15.09-16.36 0-5-1.56-9.39-4.51-12.36a14.24 14.24 0 0 0-10.4-4c-11.36-.01-15.4 8.95-15.4 16.61zm6.51.06c0-4.34 1.17-11.63 9-11.63 2.45 0 6.75.94 8 7.21a17 17 0 0 1 .31 4.08c-.11 5.17-1.7 11.33-8.65 11.33-7.81.01-8.66-7.68-8.66-10.98zM224.01 93.89c0 2.14 1.28 2.94 3.32 2.94 1.72 0 3.82-.5 3.82-2.62 0-1.47-1.22-2.08-2.48-2.33-2.5-.55-6.66-1.11-6.66-4.51s3-4.52 5.84-4.52c2.58 0 5.12 1.15 5.12 4.1h-2.2c-.08-1.7-1.51-2.29-3-2.29s-3.53.55-3.53 2.35 1.22 1.83 2.54 2.25c2.79.9 6.59.9 6.59 4.73 0 3.44-3.09 4.66-6.15 4.66s-5.48-1.34-5.4-4.75h2.2zM236.93 98.32l6.38-15.16h2.25l6.13 15.16h-2.29l-1.64-3.95h-7l-1.64 3.95h-2.16zm4.52-5.75h5.65l-2.75-7.33zM266.1 83.15l-5.59 15.16h-2.31l-5.4-15.16h2.07l4.52 13 4.54-13h2.1zM270.42 98.32V83.15h2.1v15.16h-2.1zM290.75 83.15v15.16h-2.6l-7.66-12.87v12.87h-1.92V83.15h2.88l7.42 12.5v-12.5h1.87zM307.11 86.94c-.38-1.81-2-2.29-3.57-2.29-3.72 0-5.06 3.25-5 6.09.17 3.88 1.34 6 5.69 6.09a9.82 9.82 0 0 0 3-.48v-4.28h-3.36v-1.82h5.54v7.5a18.16 18.16 0 0 1-5.21.88 7.57 7.57 0 0 1-5.54-1.74c-1.68-1.47-2.27-4-2.27-6.15a9.86 9.86 0 0 1 1.3-4.66 6.58 6.58 0 0 1 6.13-3.23c2.56 0 5.4 1.18 5.52 4.1h-2.21zM316.75 93.89c0 2.14 1.28 2.94 3.32 2.94 1.72 0 3.82-.5 3.82-2.62 0-1.47-1.22-2.08-2.48-2.33-2.5-.55-6.66-1.11-6.66-4.51s3-4.52 5.84-4.52c2.58 0 5.12 1.15 5.12 4.1h-2.21c-.08-1.7-1.51-2.29-3-2.29s-3.53.55-3.53 2.35 1.22 1.83 2.54 2.25c2.79.9 6.59.9 6.59 4.73 0 3.44-3.09 4.66-6.15 4.66s-5.48-1.34-5.4-4.75h2.21zM56.6 52.39c-10.29 0-19.4-7.57-19.4-19.59a19.57 19.57 0 0 1 37.25-8h14.27a33.12 33.12 0 1 0 .16 15.53H74.73A19.33 19.33 0 0 1 56.6 52.39z" stroke="none" fill="#ffffff" stroke-width="1px"></path><path class="cls-1" d="M2.19 96.06L0 98.16h15.42l.32-.24a70.22 70.22 0 0 1 84 0l.32.24h15.59l-2.19-2.1a80.47 80.47 0 0 0-111.27 0zM426.87 52.98a3.36 3.36 0 0 1 1.87.36 1.82 1.82 0 0 1 .92 1.47 2.12 2.12 0 0 1-.42 1.55 1.46 1.46 0 0 1-.92.44 1.14 1.14 0 0 1 1.1 1.24l.09.79a6.36 6.36 0 0 0 .28 1.57h-1.12a7.55 7.55 0 0 1-.27-1.42 2 2 0 0 0-.33-1.37 2.51 2.51 0 0 0-1.39-.29h-2v3.08h-1.14V53h3.33zm-.2 3.33a3.8 3.8 0 0 0 1.45-.22 1.1 1.1 0 0 0 .42-1c0-.83-.58-1.16-1.85-1.16h-2v2.39h2z" stroke="none" fill="#ffffff" stroke-width="1px"></path><path class="cls-1" d="M432.5 56.65a5.94 5.94 0 1 1-5.94-5.94 5.94 5.94 0 0 1 5.94 5.94zm-5.94-7a7 7 0 1 0 7 7 7 7 0 0 0-7-7z" stroke="none" fill="#ffffff" stroke-width="1px"></path></svg>