<?xml version="1.0" encoding="utf-8"?>
<!-- Generator: Adobe Illustrator 16.0.0, SVG Export Plug-In . SVG Version: 6.00 Build 0)  -->
<!DOCTYPE svg PUBLIC "-//W3C//DTD SVG 1.1//EN" "http://www.w3.org/Graphics/SVG/1.1/DTD/svg11.dtd">
<svg version="1.1" id="Layer_1" xmlns="http://www.w3.org/2000/svg" xmlns:xlink="http://www.w3.org/1999/xlink" x="0px" y="0px"
	 width="249px" height="74px" viewBox="0 0 249 74" enable-background="new 0 0 249 74" xml:space="preserve">
<g>
	<path fill="#FFFFFF" d="M114.227,54.167c-3.196,0-5.798,2.604-5.798,5.805c0,3.195,2.602,5.801,5.798,5.801
		c0.867,0,1.696-0.19,2.471-0.555c0.193-0.092,0.381-0.194,0.561-0.298c0.307-0.187,0.403-0.584,0.221-0.887
		c-0.182-0.308-0.579-0.399-0.882-0.219c-0.147,0.089-0.295,0.169-0.45,0.241c-0.6,0.286-1.247,0.429-1.921,0.429
		c-2.129,0-3.916-1.479-4.391-3.459h0.012h9.514c0.339,0,0.617-0.264,0.643-0.602c0.009-0.15,0.017-0.298,0.017-0.452
		C120.021,56.771,117.422,54.167,114.227,54.167 M109.848,59.734c-0.046,0-0.088,0.007-0.128,0.014
		c0.116-2.389,2.094-4.294,4.507-4.294c2.405,0,4.383,1.901,4.504,4.28H109.848z"/>
	<path fill="#FFFFFF" d="M205.653,54.426c-0.045-0.015-3.949-1.637-6.773,1.763V54.95c0-0.357-0.285-0.646-0.639-0.646
		c-0.357,0-0.645,0.288-0.645,0.646v10.158c0,0.356,0.287,0.644,0.645,0.644c0.354,0,0.639-0.287,0.639-0.644v-6.522
		c2.211-4.627,6.104-3.046,6.268-2.975c0.326,0.137,0.702-0.012,0.841-0.339C206.132,54.946,205.981,54.569,205.653,54.426"/>
	<path fill="#FFFFFF" d="M152.151,54.339c-0.357,0-0.645,0.289-0.645,0.644v10.092c0,0.357,0.287,0.647,0.645,0.647
		c0.354,0,0.643-0.29,0.643-0.647V54.982C152.794,54.628,152.506,54.339,152.151,54.339"/>
	<path fill="#FFFFFF" d="M152.151,51.097c-0.363,0-0.654,0.292-0.654,0.652s0.291,0.652,0.654,0.652
		c0.359,0,0.652-0.292,0.652-0.652S152.511,51.097,152.151,51.097"/>
	<path fill="#FFFFFF" d="M208.853,54.339c-0.353,0-0.643,0.289-0.643,0.644v10.092c0,0.357,0.29,0.647,0.643,0.647
		c0.355,0,0.643-0.29,0.643-0.647V54.982C209.495,54.628,209.208,54.339,208.853,54.339"/>
	<path fill="#FFFFFF" d="M208.853,51.097c-0.363,0-0.654,0.292-0.654,0.652s0.291,0.652,0.654,0.652
		c0.361,0,0.654-0.292,0.654-0.652S209.214,51.097,208.853,51.097"/>
	<path fill="#FFFFFF" d="M128.615,54.166c-1.822,0-3.452,0.85-4.514,2.171v-1.354c0-0.354-0.287-0.644-0.642-0.644
		c-0.355,0-0.642,0.289-0.642,0.644v4.989v0.928v4.175c0,0.357,0.286,0.647,0.642,0.647c0.355,0,0.642-0.29,0.642-0.647v-4.175
		v-0.928c0-2.492,2.027-4.517,4.514-4.517c2.485,0,4.51,2.024,4.51,4.517v5.103c0,0.357,0.29,0.647,0.644,0.647
		c0.358,0,0.644-0.29,0.644-0.647v-5.103C134.412,56.77,131.811,54.166,128.615,54.166"/>
	<path fill="#FFFFFF" d="M161.657,54.166c-1.823,0-3.448,0.85-4.512,2.171v-1.354c0-0.354-0.287-0.644-0.644-0.644
		c-0.351,0-0.642,0.289-0.642,0.644v4.989v0.928v4.175c0,0.357,0.291,0.647,0.642,0.647c0.356,0,0.644-0.29,0.644-0.647v-4.175
		v-0.928c0-2.492,2.025-4.517,4.512-4.517c2.488,0,4.514,2.024,4.514,4.517v5.103c0,0.357,0.285,0.647,0.641,0.647
		c0.35,0,0.641-0.29,0.641-0.647v-5.103C167.452,56.77,164.854,54.166,161.657,54.166"/>
	<path fill="#FFFFFF" d="M175.198,54.167c-3.197,0-5.8,2.604-5.8,5.805c0,3.195,2.603,5.801,5.8,5.801
		c0.861,0,1.697-0.19,2.471-0.555c0.189-0.092,0.379-0.194,0.559-0.298c0.304-0.187,0.402-0.584,0.223-0.887
		c-0.185-0.308-0.581-0.399-0.883-0.219c-0.146,0.089-0.295,0.169-0.451,0.241c-0.602,0.286-1.246,0.429-1.918,0.429
		c-2.127,0-3.912-1.479-4.393-3.459h0.012h9.518c0.339,0,0.619-0.266,0.641-0.604c0.008-0.151,0.021-0.299,0.021-0.449
		C180.997,56.771,178.392,54.167,175.198,54.167 M170.817,59.734c-0.043,0-0.084,0.007-0.129,0.014
		c0.117-2.389,2.097-4.294,4.51-4.294c2.408,0,4.379,1.901,4.502,4.28H170.817z"/>
	<path fill="#FFFFFF" d="M218.878,54.195c-1.822,0-3.447,0.848-4.51,2.168v-1.381c0-0.354-0.29-0.644-0.645-0.644
		c-0.353,0-0.641,0.289-0.641,0.644V60v0.899v4.205c0,0.354,0.288,0.641,0.641,0.641c0.354,0,0.645-0.287,0.645-0.641v-4.205V60
		c0-2.493,2.025-4.519,4.51-4.519c2.487,0,4.512,2.025,4.512,4.519v5.104c0,0.354,0.289,0.641,0.641,0.641
		c0.359,0,0.645-0.287,0.645-0.641V60C224.675,56.798,222.077,54.195,218.878,54.195"/>
	<path fill="#FFFFFF" d="M189.241,54.167c-3.193,0-5.8,2.604-5.8,5.805c0,3.195,2.606,5.801,5.8,5.801
		c0.863,0,1.697-0.19,2.473-0.555c0.189-0.092,0.379-0.194,0.56-0.298c0.306-0.187,0.402-0.584,0.222-0.887
		c-0.186-0.308-0.579-0.399-0.887-0.219c-0.143,0.089-0.293,0.169-0.445,0.241c-0.6,0.286-1.25,0.429-1.922,0.429
		c-2.125,0-3.912-1.479-4.393-3.459h0.012h9.521c0.335,0,0.615-0.266,0.639-0.604c0.01-0.151,0.018-0.299,0.018-0.449
		C195.038,56.771,192.436,54.167,189.241,54.167 M184.86,59.734c-0.043,0-0.084,0.007-0.124,0.014
		c0.112-2.389,2.09-4.294,4.505-4.294c2.409,0,4.382,1.901,4.501,4.28H184.86z"/>
	<path fill="#FFFFFF" d="M142.642,54.271c-3.172,0-5.75,2.583-5.75,5.761s2.578,5.756,5.75,5.756c1.803,0,3.409-0.835,4.465-2.137
		v1.644c0,2.464-2.003,4.469-4.465,4.469c-1.918,0-3.617-1.218-4.23-3.034c-0.115-0.337-0.479-0.518-0.816-0.402
		c-0.334,0.112-0.514,0.476-0.403,0.814c0.794,2.339,2.983,3.908,5.449,3.908c3.173,0,5.753-2.582,5.753-5.755v-5.263
		C148.395,56.854,145.815,54.271,142.642,54.271 M142.642,64.503c-2.462,0-4.464-2.005-4.464-4.472c0-2.468,2.002-4.472,4.464-4.472
		c2.462,0,4.465,2.004,4.465,4.472C147.107,62.498,145.104,64.503,142.642,64.503"/>
	<path fill="#FFFFFF" d="M232.888,54.271c-3.172,0-5.758,2.583-5.758,5.761s2.586,5.756,5.758,5.756
		c1.799,0,3.408-0.835,4.465-2.137v1.644c0,2.464-2.006,4.469-4.465,4.469c-1.918,0-3.621-1.218-4.236-3.034
		c-0.111-0.337-0.473-0.518-0.812-0.402c-0.334,0.112-0.516,0.476-0.402,0.814c0.793,2.339,2.983,3.908,5.451,3.908
		c3.166,0,5.75-2.582,5.75-5.755v-5.263C238.638,56.854,236.054,54.271,232.888,54.271 M232.888,64.503
		c-2.468,0-4.471-2.005-4.471-4.472c0-2.468,2.003-4.472,4.471-4.472c2.459,0,4.465,2.004,4.465,4.472
		C237.353,62.498,235.347,64.503,232.888,64.503"/>
	<path fill="#FFFFFF" d="M162.227,10.006c0,1.438-1.167,2.608-2.604,2.608c-1.441,0-2.611-1.169-2.611-2.608
		c0-1.439,1.17-2.605,2.611-2.605C161.06,7.401,162.227,8.567,162.227,10.006 M159.622,15.161c-1.34,0-2.426,1.085-2.426,2.423
		v23.625c0,1.34,1.086,2.423,2.426,2.423c1.335,0,2.418-1.083,2.418-2.423V17.584C162.04,16.246,160.957,15.161,159.622,15.161
		 M127.879,29.604c0,8.071-6.562,14.643-14.635,14.643c-3.77,0-7.2-1.445-9.801-3.797v12.494c0,1.339-1.081,2.421-2.418,2.421
		c-1.338,0-2.421-1.082-2.421-2.421v-23.34c0-8.073,6.567-14.639,14.64-14.639C121.317,14.964,127.879,21.531,127.879,29.604
		 M123.043,29.604c0-5.403-4.395-9.798-9.799-9.798c-5.402,0-9.801,4.395-9.801,9.798c0,5.404,4.399,9.798,9.801,9.798
		C118.648,39.401,123.043,35.008,123.043,29.604 M242.931,29.256c0,0.384-0.014,0.762-0.04,1.137
		c-0.099,1.221-1.118,2.164-2.339,2.164h-21.209c1.359,3.749,4.951,6.436,9.163,6.436c1.453,0,2.849-0.312,4.146-0.926
		c0.326-0.154,0.646-0.327,0.957-0.52c1.104-0.68,2.549-0.338,3.229,0.768c0.682,1.102,0.336,2.546-0.766,3.224
		c-0.461,0.286-0.936,0.544-1.416,0.771c-1.935,0.911-4.002,1.373-6.149,1.373c-7.955,0-14.425-6.473-14.425-14.427
		c0-7.955,6.47-14.427,14.425-14.427C236.462,14.83,242.931,21.301,242.931,29.256 M238.503,27.865
		c-0.674-4.712-4.741-8.344-9.634-8.344c-4.899,0-8.959,3.632-9.639,8.344H238.503z M152.417,15.443
		c-3.427-1.485-9.985-2.185-15.323,2.66v-0.601c0-1.336-1.082-2.423-2.421-2.423c-1.336,0-2.42,1.086-2.42,2.423v23.789
		c0,1.335,1.083,2.42,2.42,2.42c1.339,0,2.421-1.085,2.421-2.42V26.209c4.714-9.595,12.519-6.693,13.415-6.316
		c1.223,0.521,2.639-0.045,3.168-1.267C154.208,17.399,153.646,15.975,152.417,15.443 M206.436,18.571
		c-2.209-2.271-5.292-3.57-8.464-3.57c-3.746,0-7.083,1.778-9.227,4.523c-0.26-0.33-0.532-0.649-0.832-0.954
		c-2.213-2.271-5.295-3.57-8.463-3.57c-2.586,0-4.972,0.851-6.91,2.274c-0.152-1.188-1.16-2.115-2.391-2.115
		c-1.336,0-2.422,1.085-2.422,2.423v9.135v14.49c0,1.34,1.086,2.423,2.422,2.423s2.42-1.083,2.42-2.423v-14.49
		c0-3.791,3.085-6.875,6.881-6.875c1.867,0,3.692,0.767,4.998,2.106c1.07,1.1,1.71,2.481,1.846,3.992
		c-0.019,0.259-0.039,0.515-0.039,0.777v14.49c0,1.34,1.08,2.423,2.421,2.423c0.009,0,0.021-0.003,0.034-0.005
		c0.01,0.002,0.021,0.005,0.035,0.005c1.335,0,2.418-1.083,2.418-2.423V26.782c0.007-0.284-0.009-0.56-0.023-0.839
		c0.389-3.426,3.303-6.098,6.832-6.098c1.874,0,3.696,0.767,5.002,2.106c1.253,1.284,1.918,2.958,1.874,4.769v14.49
		c0,1.34,1.085,2.423,2.42,2.423c1.337,0,2.422-1.083,2.422-2.423V26.782C209.767,23.711,208.61,20.797,206.436,18.571"/>
	<path fill="#FFFFFF" d="M41.477,50.758c7.6,0,13.762-6.162,13.762-13.763c0-7.599-6.163-13.76-13.762-13.76
		c-7.6,0-13.761,6.161-13.761,13.76h0.001v0.034C27.733,44.615,33.888,50.758,41.477,50.758"/>
	<path fill="#FFFFFF" d="M41.476,1.586c-19.555,0-35.407,15.853-35.407,35.406c0,9.915,4.079,18.877,10.644,25.307V36.995
		c0-13.655,11.108-24.762,24.764-24.762c13.655,0,24.764,11.107,24.764,24.762c0,13.656-11.108,24.771-24.764,24.771
		c-5.089,0-9.821-1.548-13.76-4.188v12.062c4.23,1.786,8.878,2.775,13.759,2.775c19.56,0,35.411-15.859,35.411-35.422
		C76.887,17.439,61.036,1.586,41.476,1.586"/>
</g>
</svg>
